# xmcd CD database file
#
# Track frame offsets:
#	150
#	24957
#	64770
#	95388
#	126155
#	152575
#	176677
#	205615
#	239705
#	263740
#
# Disc length: 3711 seconds
#
# Revision: 0
# Processed by: cddbd v1.5.2PL0 Copyright (c) Steve Scherf et al.
# Submitted via: CDex 1.51
#
DISCID=7f0e7d0a
DTITLE=Karin Hammar - Everyday Magic
DYEAR=2009
DGENRE=Jazz
TTITLE0=Everyday Magic
TTITLE1=Jumping The Gun
TTITLE2=Chris-Crossed
TTITLE3=Only Time Will Tell
TTITLE4=Holy Pony
TTITLE5=Fragments
TTITLE6=Haunted
TTITLE7=Signature
TTITLE8=Pyssling
TTITLE9=Out Of Reach
EXTD=YEAR: 2009
EXTT0=
EXTT1=
EXTT2=
EXTT3=
EXTT4=
EXTT5=
EXTT6=
EXTT7=
EXTT8=
EXTT9=
PLAYORDER=
